<mxfile host="Electron" agent="Mozilla/5.0 (X11; Linux x86_64) AppleWebKit/537.36 (KHTML, like Gecko) draw.io/26.0.4 Chrome/128.0.6613.186 Electron/32.2.5 Safari/537.36" version="26.0.4">
  <diagram name="Page-1" id="meVkWX2NYukC44fZ4OGT">
    <mxGraphModel dx="1364" dy="843" grid="1" gridSize="10" guides="1" tooltips="1" connect="1" arrows="1" fold="1" page="1" pageScale="1" pageWidth="1100" pageHeight="850" math="0" shadow="0">
      <root>
        <mxCell id="0" />
        <mxCell id="1" parent="0" />
        <mxCell id="aOqvlGi3BOh0_aibLUsC-42" value="TWAIN WP 4" style="rounded=0;whiteSpace=wrap;html=1;fillColor=#ffcccc;strokeColor=#36393d;labelPosition=center;verticalLabelPosition=middle;align=center;verticalAlign=top;horizontal=1;fillOpacity=50;" parent="1" vertex="1">
          <mxGeometry x="740" y="160" width="280" height="320" as="geometry" />
        </mxCell>
        <mxCell id="aOqvlGi3BOh0_aibLUsC-40" value="TWAIN WP 3" style="rounded=0;whiteSpace=wrap;html=1;fillColor=#f9f7ed;strokeColor=#36393d;labelPosition=center;verticalLabelPosition=middle;align=center;verticalAlign=top;horizontal=1;fillOpacity=50;" parent="1" vertex="1">
          <mxGeometry x="460" y="160" width="160" height="140" as="geometry" />
        </mxCell>
        <mxCell id="aOqvlGi3BOh0_aibLUsC-39" value="TWAIN WP 2" style="rounded=0;whiteSpace=wrap;html=1;fillColor=#f9f7ed;strokeColor=#36393d;labelPosition=center;verticalLabelPosition=middle;align=center;verticalAlign=top;horizontal=1;fillOpacity=50;" parent="1" vertex="1">
          <mxGeometry x="180" y="160" width="160" height="140" as="geometry" />
        </mxCell>
        <mxCell id="aOqvlGi3BOh0_aibLUsC-3" value="Ambient conditions" style="text;html=1;align=center;verticalAlign=middle;whiteSpace=wrap;rounded=0;" parent="1" vertex="1">
          <mxGeometry x="60" y="225" width="60" height="30" as="geometry" />
        </mxCell>
        <mxCell id="aOqvlGi3BOh0_aibLUsC-4" value="" style="endArrow=classic;html=1;rounded=0;exitX=1;exitY=0.5;exitDx=0;exitDy=0;" parent="1" source="aOqvlGi3BOh0_aibLUsC-3" target="aOqvlGi3BOh0_aibLUsC-6" edge="1">
          <mxGeometry width="50" height="50" relative="1" as="geometry">
            <mxPoint x="200" y="240" as="sourcePoint" />
            <mxPoint x="200" y="260" as="targetPoint" />
          </mxGeometry>
        </mxCell>
        <mxCell id="aOqvlGi3BOh0_aibLUsC-6" value="Wind farm&lt;div&gt;surrogate models&lt;/div&gt;" style="rounded=0;whiteSpace=wrap;html=1;" parent="1" vertex="1">
          <mxGeometry x="200" y="200" width="120" height="80" as="geometry" />
        </mxCell>
        <mxCell id="aOqvlGi3BOh0_aibLUsC-8" value="" style="endArrow=none;html=1;rounded=0;exitX=1;exitY=0.5;exitDx=0;exitDy=0;endFill=0;entryX=0;entryY=0.5;entryDx=0;entryDy=0;" parent="1" source="aOqvlGi3BOh0_aibLUsC-6" target="aOqvlGi3BOh0_aibLUsC-9" edge="1">
          <mxGeometry width="50" height="50" relative="1" as="geometry">
            <mxPoint x="640" y="350" as="sourcePoint" />
            <mxPoint x="350" y="190" as="targetPoint" />
          </mxGeometry>
        </mxCell>
        <mxCell id="aOqvlGi3BOh0_aibLUsC-9" value="Model outputs" style="text;html=1;align=center;verticalAlign=middle;whiteSpace=wrap;rounded=0;" parent="1" vertex="1">
          <mxGeometry x="360" y="225" width="80" height="30" as="geometry" />
        </mxCell>
        <mxCell id="aOqvlGi3BOh0_aibLUsC-10" value="Metrics evaluation" style="rounded=0;whiteSpace=wrap;html=1;" parent="1" vertex="1">
          <mxGeometry x="480" y="200" width="120" height="80" as="geometry" />
        </mxCell>
        <mxCell id="aOqvlGi3BOh0_aibLUsC-11" value="" style="endArrow=classic;html=1;rounded=0;exitX=1;exitY=0.5;exitDx=0;exitDy=0;entryX=0;entryY=0.5;entryDx=0;entryDy=0;" parent="1" source="aOqvlGi3BOh0_aibLUsC-9" target="aOqvlGi3BOh0_aibLUsC-10" edge="1">
          <mxGeometry width="50" height="50" relative="1" as="geometry">
            <mxPoint x="640" y="350" as="sourcePoint" />
            <mxPoint x="690" y="300" as="targetPoint" />
          </mxGeometry>
        </mxCell>
        <mxCell id="aOqvlGi3BOh0_aibLUsC-12" value="" style="endArrow=none;html=1;rounded=0;exitX=1;exitY=0.5;exitDx=0;exitDy=0;endFill=0;entryX=0;entryY=0.5;entryDx=0;entryDy=0;" parent="1" target="aOqvlGi3BOh0_aibLUsC-13" edge="1">
          <mxGeometry width="50" height="50" relative="1" as="geometry">
            <mxPoint x="600" y="240" as="sourcePoint" />
            <mxPoint x="640" y="240" as="targetPoint" />
          </mxGeometry>
        </mxCell>
        <mxCell id="aOqvlGi3BOh0_aibLUsC-13" value="Individual metric values" style="text;html=1;align=center;verticalAlign=middle;whiteSpace=wrap;rounded=0;" parent="1" vertex="1">
          <mxGeometry x="640" y="225" width="80" height="30" as="geometry" />
        </mxCell>
        <mxCell id="aOqvlGi3BOh0_aibLUsC-14" value="" style="endArrow=classic;html=1;rounded=0;exitX=1;exitY=0.5;exitDx=0;exitDy=0;entryX=0;entryY=0.5;entryDx=0;entryDy=0;" parent="1" source="aOqvlGi3BOh0_aibLUsC-13" target="aOqvlGi3BOh0_aibLUsC-16" edge="1">
          <mxGeometry width="50" height="50" relative="1" as="geometry">
            <mxPoint x="880" y="350" as="sourcePoint" />
            <mxPoint x="760" y="240" as="targetPoint" />
          </mxGeometry>
        </mxCell>
        <mxCell id="aOqvlGi3BOh0_aibLUsC-16" value="Multi-Objective&lt;div&gt;function evaluation&lt;/div&gt;" style="rounded=0;whiteSpace=wrap;html=1;" parent="1" vertex="1">
          <mxGeometry x="820" y="200" width="120" height="80" as="geometry" />
        </mxCell>
        <mxCell id="aOqvlGi3BOh0_aibLUsC-19" value="User configuration" style="text;html=1;align=center;verticalAlign=middle;whiteSpace=wrap;rounded=0;" parent="1" vertex="1">
          <mxGeometry x="740" y="90" width="60" height="30" as="geometry" />
        </mxCell>
        <mxCell id="aOqvlGi3BOh0_aibLUsC-20" value="" style="endArrow=classic;html=1;rounded=0;entryX=0;entryY=0.25;entryDx=0;entryDy=0;exitX=0.5;exitY=1;exitDx=0;exitDy=0;" parent="1" source="aOqvlGi3BOh0_aibLUsC-19" target="aOqvlGi3BOh0_aibLUsC-16" edge="1">
          <mxGeometry width="50" height="50" relative="1" as="geometry">
            <mxPoint x="830" y="150" as="sourcePoint" />
            <mxPoint x="819.5" y="280" as="targetPoint" />
            <Array as="points">
              <mxPoint x="770" y="220" />
            </Array>
          </mxGeometry>
        </mxCell>
        <mxCell id="aOqvlGi3BOh0_aibLUsC-26" value="" style="endArrow=none;html=1;rounded=0;exitX=1;exitY=0.5;exitDx=0;exitDy=0;endFill=0;entryX=0.5;entryY=0;entryDx=0;entryDy=0;" parent="1" source="aOqvlGi3BOh0_aibLUsC-16" target="aOqvlGi3BOh0_aibLUsC-29" edge="1">
          <mxGeometry width="50" height="50" relative="1" as="geometry">
            <mxPoint x="640" y="350" as="sourcePoint" />
            <mxPoint x="920" y="300" as="targetPoint" />
            <Array as="points">
              <mxPoint x="970" y="240" />
            </Array>
          </mxGeometry>
        </mxCell>
        <mxCell id="aOqvlGi3BOh0_aibLUsC-29" value="MO function&lt;div&gt;value&lt;/div&gt;" style="text;html=1;align=center;verticalAlign=middle;whiteSpace=wrap;rounded=0;" parent="1" vertex="1">
          <mxGeometry x="930" y="310" width="80" height="30" as="geometry" />
        </mxCell>
        <mxCell id="aOqvlGi3BOh0_aibLUsC-32" value="MO optimization" style="rounded=0;whiteSpace=wrap;html=1;" parent="1" vertex="1">
          <mxGeometry x="820" y="360" width="120" height="80" as="geometry" />
        </mxCell>
        <mxCell id="aOqvlGi3BOh0_aibLUsC-37" value="" style="endArrow=classic;html=1;rounded=0;exitX=0;exitY=0.5;exitDx=0;exitDy=0;entryX=0.5;entryY=1;entryDx=0;entryDy=0;" parent="1" source="aOqvlGi3BOh0_aibLUsC-36" target="aOqvlGi3BOh0_aibLUsC-6" edge="1">
          <mxGeometry width="50" height="50" relative="1" as="geometry">
            <mxPoint x="520" y="280" as="sourcePoint" />
            <mxPoint x="570" y="230" as="targetPoint" />
            <Array as="points">
              <mxPoint x="260" y="400" />
            </Array>
          </mxGeometry>
        </mxCell>
        <mxCell id="aOqvlGi3BOh0_aibLUsC-41" value="" style="endArrow=classic;html=1;rounded=0;entryX=1;entryY=0.5;entryDx=0;entryDy=0;exitX=0.5;exitY=1;exitDx=0;exitDy=0;" parent="1" source="aOqvlGi3BOh0_aibLUsC-29" target="aOqvlGi3BOh0_aibLUsC-32" edge="1">
          <mxGeometry width="50" height="50" relative="1" as="geometry">
            <mxPoint x="540" y="360" as="sourcePoint" />
            <mxPoint x="590" y="310" as="targetPoint" />
            <Array as="points">
              <mxPoint x="970" y="400" />
            </Array>
          </mxGeometry>
        </mxCell>
        <mxCell id="aOqvlGi3BOh0_aibLUsC-44" value="" style="endArrow=none;html=1;rounded=0;exitX=0;exitY=0.5;exitDx=0;exitDy=0;endFill=0;" parent="1" source="aOqvlGi3BOh0_aibLUsC-32" target="aOqvlGi3BOh0_aibLUsC-36" edge="1">
          <mxGeometry width="50" height="50" relative="1" as="geometry">
            <mxPoint x="760" y="400" as="sourcePoint" />
            <mxPoint x="440" y="400" as="targetPoint" />
          </mxGeometry>
        </mxCell>
        <mxCell id="aOqvlGi3BOh0_aibLUsC-36" value="Control inputs/&lt;div&gt;control strategy&lt;/div&gt;" style="text;html=1;align=center;verticalAlign=middle;whiteSpace=wrap;rounded=0;" parent="1" vertex="1">
          <mxGeometry x="500" y="385" width="100" height="30" as="geometry" />
        </mxCell>
      </root>
    </mxGraphModel>
  </diagram>
</mxfile>
